<svg width="55" height="50" viewBox="0 0 55 50" fill="none" xmlns="http://www.w3.org/2000/svg">
<path d="M8 35.1105C5.6 36.7105 1.66667 36.7772 0 36.6105V48.6105L7.5 49.1105H35C41.5 49.1105 53.5 36.1105 54 35.1105C54.5 34.1105 55 32.6105 54 31.1105C53 29.6105 50 30.1105 45.5 34.6105C41.9 38.2105 39 39.4439 38 39.6105H25C24 39.6105 24 38.6105 24 37.6105C24 36.8105 24.6667 36.6105 25 36.6105H33.5C34.5 36.6105 36.5 36.0105 36.5 33.6105C36.5 31.2105 34.5 30.6105 33.5 30.6105H19.5C13 30.6105 11 33.1105 8 35.1105Z" fill="#FC7E00"/>
<path d="M14.5 3.61052C11 9.61053 21.5 20.2772 27 24.1105C32.5 20.2772 43 10.6105 40 4.11054C37 -2.38946 30.1667 0.610529 27 3.11052C24.1667 0.277192 18 -2.38948 14.5 3.61052Z" fill="#FC7E00"/>
</svg>
