<svg width="55" height="49" viewBox="0 0 55 49" fill="none" xmlns="http://www.w3.org/2000/svg">
<path d="M18 1H17V2H18V1Z" fill="#FC7F00"/>
<path d="M15 5H14V6H15V5Z" fill="#FC7F00"/>
<path d="M14 7V8V9V10L15 11V12L16 13L17 14L18 15L19 16H20L14 7Z" fill="#FC7F00"/>
<path d="M16 31L15 32L13 33H12L11 34H10L9 35L8 36L7 37H6L1 38H0V48H1H3H15H24V40V39V38V37V36L36 33V32L35 31H34H33H28H27H24H20H18H17H16Z" fill="#FC7F00"/>
<path d="M18 1L17 2H16L15 3V4V5L14 6V7L20 16V17L21 18L22 19L23 20L24 21L25 22L26 23L27 24H28L29 23L30 22L31 21L32 20L33 19L34 18L35 17L36 16L37 15L38 14L39 13L40 12V11V10L41 9V8V7V6L40 5V4L39 3V2H38L37 1H36H35H34H33H32H31H30L29 2L28 3H27L26 2H25L24 1H23H22H21H20H19H18Z" fill="#FC7E00"/>
<path d="M13 32V33L15 32H14H13Z" fill="#FC7E00"/>
<path d="M21 0H20V1H21V0Z" fill="#FC7F01"/>
<path d="M40 3H39V4H40V3Z" fill="#FC7F01"/>
<path d="M41 5H40V6H41V5Z" fill="#FC7F01"/>
<path d="M16 31H15V32H16V31Z" fill="#FC7F01"/>
<path d="M36 33L24 36H25H26H33H34H35L36 35V34V33Z" fill="#FC7F01"/>
<path d="M24 40V48H33H34H35H36L25 40H24Z" fill="#FC7F01"/>
<path d="M51 31L50 32H49L48 33L47 34L46 35H45L44 36L43 37L42 38L41 39H40L39 40H38H26H25L36 48H37H38H39L40 47L41 46L42 45H43L44 44L45 43L46 42L47 41H48L49 40L50 39L51 38L52 37H53L54 36V35L55 34V33L54 32L53 31H51Z" fill="#FC8002"/>
<path d="M12 33H11V34H12V33Z" fill="#FC8002"/>
<path d="M25 36H24V37H25V36Z" fill="#FC8002"/>
<path d="M1 37V38L6 37H5H1Z" fill="#FC8002"/>
<path d="M25 1H24V2H25V1Z" fill="#FC7F24" fill-opacity="0.9"/>
<path d="M38 1H37V2H38V1Z" fill="#FC7F24" fill-opacity="0.9"/>
<path d="M3 48V49H15V48H3Z" fill="#FC7F24" fill-opacity="0.9"/>
<path d="M35 0H34V1H35V0Z" fill="#FC801F" fill-opacity="0.9"/>
<path d="M1 48V49H3V48H1Z" fill="#FC801F" fill-opacity="0.9"/>
<path d="M15 48V49H24V48H15Z" fill="#FC801F" fill-opacity="0.9"/>
<path d="M34 48H33V49H34V48Z" fill="#FC801F" fill-opacity="0.9"/>
<path d="M36 48H35V49H36V48Z" fill="#FC801F" fill-opacity="0.9"/>
<path d="M24 48V49H33V48H24Z" fill="#FC801B" fill-opacity="0.9"/>
<path d="M35 48H34V49H35V48Z" fill="#FC801B" fill-opacity="0.9"/>
<path d="M26 23H25V24H26V23Z" fill="#FCDABC" fill-opacity="0.3"/>
<path d="M18 30V31H20H24V30H18Z" fill="#FCDABC" fill-opacity="0.3"/>
<path d="M28 30H27V31H28V30Z" fill="#FCDABC" fill-opacity="0.3"/>
<path d="M34 30H33V31H34V30Z" fill="#FCDABC" fill-opacity="0.3"/>
<path d="M25 38H24V39H25V38Z" fill="#FCDABC" fill-opacity="0.3"/>
<path d="M24 30V31H27V30H24Z" fill="#FCD8B9" fill-opacity="0.3"/>
<path d="M28 30V31H33V30H28Z" fill="#FCD8B9" fill-opacity="0.3"/>
<path d="M26 36V37H33V36H26Z" fill="#FC9C52" fill-opacity="0.7"/>
<path d="M42 8H41V9H42V8Z" fill="#FCDACA" fill-opacity="0.1"/>
<path d="M41 11H40V12H41V11Z" fill="#FCDACA" fill-opacity="0.1"/>
<path d="M53 37H52V38H53V37Z" fill="#FCDACA" fill-opacity="0.1"/>
<path d="M48 41H47V42H48V41Z" fill="#FCDACA" fill-opacity="0.1"/>
<path d="M43 45H42V46H43V45Z" fill="#FCDACA" fill-opacity="0.1"/>
<path d="M39 48H38V49H39V48Z" fill="#FCDACA" fill-opacity="0.1"/>
<path d="M14 9H13V10H14V9Z" fill="#FCDCC5" fill-opacity="0.2"/>
<path d="M22 20H23V21H24V22H23V21H22V20Z" fill="#FCDCC5" fill-opacity="0.2"/>
<path d="M27 24H26V25H27V24Z" fill="#FCDCC5" fill-opacity="0.2"/>
<path d="M42 7H41V8H42V7Z" fill="#FCD2C5" fill-opacity="0.2"/>
<path d="M25 22H24V23H25V22Z" fill="#FCDAC0" fill-opacity="0.2"/>
<path d="M18 30H17V31H18V30Z" fill="#FCDAC0" fill-opacity="0.2"/>
<path d="M20 0H19V1H20V0Z" fill="#FC823B" fill-opacity="0.8"/>
<path d="M33 0H32V1H33V0Z" fill="#FC823B" fill-opacity="0.8"/>
<path d="M20 16H19V17H20V16Z" fill="#FC823B" fill-opacity="0.8"/>
<path d="M22 0H21V1H22V0Z" fill="#FC7F2B" fill-opacity="0.8"/>
<path d="M8 36H7V37H8V36Z" fill="#FC7F2B" fill-opacity="0.8"/>
<path d="M1 37H0V38H1V37Z" fill="#FC7F2B" fill-opacity="0.8"/>
<path d="M14 7H13V8H14V7Z" fill="#FCD1A7" fill-opacity="0.3"/>
<path d="M15 11H14V12H15V11Z" fill="#FCD1A7" fill-opacity="0.3"/>
<path d="M25 39H24V40H25V39Z" fill="#FC8036" fill-opacity="0.8"/>
<path d="M41 10H40V11H41V10Z" fill="#FCAB5D" fill-opacity="0.6"/>
<path d="M37 34H36V35H37V34Z" fill="#FCC888" fill-opacity="0.5"/>
<path d="M35 36H34V37H35V36Z" fill="#FCC888" fill-opacity="0.5"/>
<path d="M32 0H31V1H32V0Z" fill="#FCBE86" fill-opacity="0.5"/>
<path d="M37 0H36V1H37V0Z" fill="#FCBE86" fill-opacity="0.5"/>
<path d="M15 31H14V32H15V31Z" fill="#FC9545" fill-opacity="0.7"/>
<path d="M13 32H12V33H13V32Z" fill="#FC9545" fill-opacity="0.7"/>
<path d="M19 0H18V1H19V0Z" fill="#FCBC7F" fill-opacity="0.5"/>
<path d="M25 37H24V38H25V37Z" fill="#FCBC7F" fill-opacity="0.5"/>
<path d="M37 33H36V34H37V33Z" fill="#FCAE68" fill-opacity="0.6"/>
<path d="M38 48H37V49H38V48Z" fill="#FCAE68" fill-opacity="0.6"/>
<path d="M15 4H14V5H15V4Z" fill="#FC9740" fill-opacity="0.7"/>
<path d="M24 0H23V1H24V0Z" fill="#FCC192" fill-opacity="0.4"/>
<path d="M23 0H22V1H23V0Z" fill="#FCA049" fill-opacity="0.7"/>
<path d="M14 8H13V9H14V8Z" fill="#FCD3AE" fill-opacity="0.3"/>
<path d="M28 24H27V25H28V24Z" fill="#FCD3AE" fill-opacity="0.3"/>
<path d="M40 39H39V40H40V39Z" fill="#FCB476" fill-opacity="0.6"/>
<path d="M36 0H35V1H36V0Z" fill="#FC973A" fill-opacity="0.8"/>
<path d="M26 36H25V37H26V36Z" fill="#FC973A" fill-opacity="0.8"/>
<path d="M34 36H33V37H34V36Z" fill="#FCA254" fill-opacity="0.7"/>
<path d="M34 0H33V1H34V0Z" fill="#FC7F27" fill-opacity="0.9"/>
<path d="M37 48H36V49H37V48Z" fill="#FC7F27" fill-opacity="0.9"/>
<path d="M51 31H50V32H51V31Z" fill="#FC8131" fill-opacity="0.8"/>
<path d="M1 48H0V49H1V48Z" fill="#FC965E" fill-opacity="0.6"/>
<path d="M18 0H17V1H18V0Z" fill="#FCD5DC" fill-opacity="0.1"/>
<path d="M55 32H54V33H55V32Z" fill="#FCAB46" fill-opacity="0.7"/>
<path d="M55 35H54V36H55V35Z" fill="#FCCCB4" fill-opacity="0.3"/>
<path d="M27 23H26V24H27V23Z" fill="#FC7F00"/>
<path d="M41 9H40V10H41V9Z" fill="#FC7F01"/>
<path d="M23 20H24V21H25V22H26V23H25V22H24V21H23V20Z" fill="#FC7F01"/>
<path d="M23 19H22V20H23V19Z" fill="#FC7F24" fill-opacity="0.9"/>
<path d="M14 31H13V32H14V31Z" fill="#FCDABC" fill-opacity="0.3"/>
<path d="M11 33H10V34H11V33Z" fill="#FCDABC" fill-opacity="0.3"/>
<path d="M15 3H14V4H15V3Z" fill="#FCD8B9" fill-opacity="0.3"/>
<path d="M9 35H8V36H9V35Z" fill="#FC9C52" fill-opacity="0.7"/>
<path d="M42 6H41V7H42V6Z" fill="#FCDACA" fill-opacity="0.1"/>
<path d="M35 30H34V31H35V30Z" fill="#FCDACA" fill-opacity="0.1"/>
<path d="M17 30H16V31H17V30Z" fill="#FCDCC5" fill-opacity="0.2"/>
<path d="M12 32H11V33H12V32Z" fill="#FCDCC5" fill-opacity="0.2"/>
<path d="M26 39H25V40H26V39Z" fill="#FCDCC5" fill-opacity="0.2"/>
<path d="M50 31H49V32H50V31Z" fill="#FCD2C5" fill-opacity="0.2"/>
<path d="M45 35H44V36H45V35Z" fill="#FCD2C5" fill-opacity="0.2"/>
<path d="M39 39H38V40H39V39Z" fill="#FCD2C5" fill-opacity="0.2"/>
<path d="M7 36H6V37H7V36Z" fill="#FCDAC0" fill-opacity="0.2"/>
<path d="M19 15H18V16H19V15Z" fill="#FC823B" fill-opacity="0.8"/>
<path d="M21 17H20V18H21V17Z" fill="#FC823B" fill-opacity="0.8"/>
<path d="M30 22H29V23H30V22Z" fill="#FC823B" fill-opacity="0.8"/>
<path d="M42 38H41V39H42V38Z" fill="#FC823B" fill-opacity="0.8"/>
<path d="M22 18H21V19H22V18Z" fill="#FC7F2B" fill-opacity="0.8"/>
<path d="M26 1H25V2H26V1Z" fill="#FCD1A7" fill-opacity="0.3"/>
<path d="M29 23H28V24H29V23Z" fill="#FC8036" fill-opacity="0.8"/>
<path d="M52 37H51V38H52V37Z" fill="#FC8036" fill-opacity="0.8"/>
<path d="M35 17H34V18H35V17Z" fill="#FCAB5D" fill-opacity="0.6"/>
<path d="M51 38H50V39H51V38Z" fill="#FCAB5D" fill-opacity="0.6"/>
<path d="M46 42H45V43H46V42Z" fill="#FCAB5D" fill-opacity="0.6"/>
<path d="M44 36H43V37H44V36Z" fill="#FCC888" fill-opacity="0.5"/>
<path d="M15 10H14V11H15V10Z" fill="#FC8030" fill-opacity="0.8"/>
<path d="M36 35H35V36H36V35Z" fill="#FC8030" fill-opacity="0.8"/>
<path d="M47 41H46V42H47V41Z" fill="#FC8030" fill-opacity="0.8"/>
<path d="M42 45H41V46H42V45Z" fill="#FC8030" fill-opacity="0.8"/>
<path d="M31 21H30V22H31V21Z" fill="#FC813F" fill-opacity="0.7"/>
<path d="M54 31H53V32H54V31Z" fill="#FC813F" fill-opacity="0.7"/>
<path d="M47 34H46V35H47V34Z" fill="#FC813F" fill-opacity="0.7"/>
<path d="M40 12H39V13H40V12Z" fill="#FCBE86" fill-opacity="0.5"/>
<path d="M50 39H49V40H50V39Z" fill="#FCBE86" fill-opacity="0.5"/>
<path d="M32 20H31V21H32V20Z" fill="#FC9545" fill-opacity="0.7"/>
<path d="M39 13H38V14H39V13Z" fill="#FCBC7F" fill-opacity="0.5"/>
<path d="M48 33H47V34H48V33Z" fill="#FCAE68" fill-opacity="0.6"/>
<path d="M39 1H38V2H39V1Z" fill="#FCD2BF" fill-opacity="0.2"/>
<path d="M37 32H36V33H37V32Z" fill="#FCD2BF" fill-opacity="0.2"/>
<path d="M49 40H48V41H49V40Z" fill="#FCD2BF" fill-opacity="0.2"/>
<path d="M16 13H17V14H18V15H17V14H16V13Z" fill="#FC9740" fill-opacity="0.7"/>
<path d="M28 3H27V4H28V3Z" fill="#FCA34B" fill-opacity="0.7"/>
<path d="M16 12H15V13H16V12Z" fill="#FCA34B" fill-opacity="0.7"/>
<path d="M34 18H33V19H34V18Z" fill="#FCA34B" fill-opacity="0.7"/>
<path d="M30 1H29V2H30V1Z" fill="#FCC192" fill-opacity="0.4"/>
<path d="M16 2H15V3H16V2Z" fill="#FCC192" fill-opacity="0.4"/>
<path d="M40 2H39V3H40V2Z" fill="#FCCEBB" fill-opacity="0.3"/>
<path d="M54 36H53V37H54V36Z" fill="#FCCEBB" fill-opacity="0.3"/>
<path d="M44 44H43V45H44V44Z" fill="#FCCEBB" fill-opacity="0.3"/>
<path d="M29 2H28V3H29V2Z" fill="#FCBC7B" fill-opacity="0.5"/>
<path d="M37 14H38V15H37V16H36V15H37V14Z" fill="#FCBC7B" fill-opacity="0.5"/>
<path d="M10 34H9V35H10V34Z" fill="#FCC481" fill-opacity="0.5"/>
<path d="M45 43H44V44H45V43Z" fill="#FCC481" fill-opacity="0.5"/>
<path d="M40 47H39V48H40V47Z" fill="#FCC481" fill-opacity="0.5"/>
<path d="M17 1H16V2H17V1Z" fill="#FCC895" fill-opacity="0.4"/>
<path d="M49 32H48V33H49V32Z" fill="#FCC895" fill-opacity="0.4"/>
<path d="M33 19H32V20H33V19Z" fill="#FCA049" fill-opacity="0.7"/>
<path d="M14 6H13V7H14V6Z" fill="#FCD3AE" fill-opacity="0.3"/>
<path d="M41 4H40V5H41V4Z" fill="#FCB476" fill-opacity="0.6"/>
<path d="M36 16H35V17H36V16Z" fill="#FCAD61" fill-opacity="0.6"/>
<path d="M43 37H42V38H43V37Z" fill="#FCAD61" fill-opacity="0.6"/>
<path d="M41 46H40V47H41V46Z" fill="#FCA254" fill-opacity="0.7"/>
<path d="M55 34H54V35H55V34Z" fill="#FC8131" fill-opacity="0.8"/>
<path d="M36 31H35V32H36V31Z" fill="#FCBD76" fill-opacity="0.5"/>
<path d="M27 2H26V3H27V2Z" fill="#FCC9A1" fill-opacity="0.3"/>
</svg>
