<svg width="57" height="50" viewBox="0 0 57 50" fill="none" xmlns="http://www.w3.org/2000/svg">
<circle cx="11.5021" cy="5" r="5" fill="#FC7E00"/>
<circle cx="46.5021" cy="5" r="5" fill="#FC7E00"/>
<path d="M9 38.0303L5.40074 34C4.20121 35.9401 1.80241 40.7153 0.452525 43.4024L0.45175 43.404C0.45175 43.404 0.435907 43.4355 0.410154 43.4934C0.198213 43.9704 -0.684891 46.2363 1.06857 47.4342C2.63854 48.5067 4.05103 47.882 4.95083 46.9864C5.85063 46.0908 9 38.0303 9 38.0303Z" fill="#FC7E00"/>
<path d="M48 38.3181L51.5993 34C52.7988 36.0787 55.1976 41.1949 56.5475 44.074L56.5482 44.0757C56.5482 44.0757 56.5641 44.1095 56.5898 44.1715C56.8018 44.6826 57.6849 47.1104 55.9314 48.3938C54.3615 49.5429 52.949 48.8736 52.0492 47.914C51.1494 46.9544 48 38.3181 48 38.3181Z" fill="#FC7E00"/>
<path fill-rule="evenodd" clip-rule="evenodd" d="M38.5403 22.4526C38.5403 22.4526 38.0403 24.4526 36.5403 23.4526V12.4526H29.0403V12.4999H21.0403V23.4999C19.5403 24.4999 19.0403 22.4999 19.0403 22.4999C17.0403 18.4999 13.5403 12.5 12.0403 12.1976C10.6482 11.917 10.3911 12.0524 9.7077 12.4122C9.6547 12.4401 9.59913 12.4694 9.54027 12.4999C2.74027 18.0999 3.04027 26.1666 4.04027 29.4999C4.53322 31.1431 6.48416 32.4217 8.33588 33.6354C10.2406 34.8837 12.0403 36.0633 12.0403 37.4999V47.4999C12.0403 48.9999 12.5403 49.4999 15.0403 49.4999C17.0403 49.4999 17.5403 48.1666 17.5403 47.4999V37.4999C17.5403 35.8999 12.0403 28.9999 12.0403 28.9999C12.0403 28.9999 12.0403 18.9999 14.0403 23.4999C16.0403 27.9999 18.0403 30.4999 21.0403 30.9999C23.1498 30.9413 25.9157 30.9684 27.837 30.9872C28.5441 30.9941 29.1368 30.9999 29.5403 30.9999V30.9505C29.8657 30.948 30.2374 30.9437 30.6448 30.939C32.2711 30.9203 34.4647 30.895 36.5403 30.9526C39.5403 30.4526 41.5403 27.9526 43.5403 23.4526C45.5403 18.9527 45.5403 28.9526 45.5403 28.9526C45.5403 28.9526 40.0403 35.8526 40.0403 37.4526V47.4526C40.0403 48.1193 40.5403 49.4526 42.5403 49.4526C45.0403 49.4526 45.5403 48.9526 45.5403 47.4526V37.4526C45.5403 36.016 47.34 34.8365 49.2447 33.5881C51.0964 32.3745 53.0473 31.0958 53.5403 29.4526C54.5403 26.1193 54.8403 18.0526 48.0403 12.4526C47.9814 12.4221 47.9259 12.3929 47.8729 12.365C47.1895 12.0051 46.9323 11.8697 45.5403 12.1503C44.0403 12.4527 40.5403 18.4527 38.5403 22.4526Z" fill="#FC7E00"/>
</svg>
