<svg width="59" height="47" viewBox="0 0 59 47" fill="none" xmlns="http://www.w3.org/2000/svg">
<path fill-rule="evenodd" clip-rule="evenodd" d="M14.5 47C18.6421 47 22 43.6421 22 39.5C22 35.3579 18.6421 32 14.5 32C10.3579 32 7 35.3579 7 39.5C7 43.6421 10.3579 47 14.5 47ZM14.5 43C16.433 43 18 41.433 18 39.5C18 37.567 16.433 36 14.5 36C12.567 36 11 37.567 11 39.5C11 41.433 12.567 43 14.5 43Z" fill="#FC7E00"/>
<path fill-rule="evenodd" clip-rule="evenodd" d="M12 0C9.79086 0 8 1.79086 8 4V7H2C0.895431 7 0 7.89543 0 9C0 10.1046 0.89543 11 2 11H6H8H26C26.5523 11 27 11.4477 27 12V13C27 13.5523 26.5523 14 26 14H6V14H3.63462C2.77433 14 2.07692 14.6974 2.07692 15.5577C2.07692 16.418 2.77433 17.1154 3.63462 17.1154H6V17.1016H26C26.5523 17.1016 27 17.5493 27 18.1016V19C27 19.5523 26.5523 20 26 20H6V19.9812H1.55769C0.697403 19.9812 0 20.6786 0 21.5389C0 22.3992 0.697404 23.0966 1.55769 23.0966H7.5V37H39.4268C39.1504 37.7819 39 38.6234 39 39.5C39 43.6421 42.3579 47 46.5 47C50.6421 47 54 43.6421 54 39.5C54 38.6234 53.8496 37.7819 53.5732 37H59V32H56V20L45 9H39V4C39 1.79086 37.2091 0 35 0H12ZM43 39.5C43 38.5207 43.4022 37.6353 44.0505 37H48.9495C49.5978 37.6353 50 38.5207 50 39.5C50 41.433 48.433 43 46.5 43C44.567 43 43 41.433 43 39.5ZM40 12H43.2308L52 20.1818V22H40V12Z" fill="#FC7E00"/>
</svg>
