<svg width="58" height="46" viewBox="0 0 58 46" fill="none" xmlns="http://www.w3.org/2000/svg">
<path fill-rule="evenodd" clip-rule="evenodd" d="M32 25C34.6667 24.3333 40.9 22.4 44.5 20C46 22.5 57 26 57 26C57.8057 37.6824 47.5 45.5673 44.5 45.6693C41 45.6693 31.4777 38.84 32 25ZM44 25C46.3333 26 53.5 28 53.5 28C53.5 28 53 38 44 41.5V25Z" fill="#FC7E00"/>
<path d="M26 26.5001C20.4 31.3001 14 26.5001 14 26.5001C14 26.5001 3.08493 24.8491 1.0858 35.5C0.624864 37.9557 1.0858 43 3 45.0001H36C28.4 39.8001 27.8333 30.5001 28.5 26.5001H26Z" fill="#FC7E00"/>
<circle cx="20" cy="12" r="12" fill="#FC7E00"/>
</svg>
