<svg width="25" height="25" viewBox="0 0 25 25" fill="none" xmlns="http://www.w3.org/2000/svg">
<circle cx="12.5" cy="12.5" r="12.5" fill="#FFD02B"/>
<path fill-rule="evenodd" clip-rule="evenodd" d="M19.5948 22.7929L9.23913 17.5L9.78261 15.5C11.0507 16.1667 13.8043 17.5 14.6739 15.5C15.5435 13.5 15.2174 12.5 11.9565 13V11.5C13.2246 11.6667 14.6739 11.5 14.6739 9.5C14.6739 7.5 11.9565 8 10.3261 8.5L9.23913 7C10.1058 6.8861 10.7727 6.74626 11.3379 6.62775C13.2538 6.22603 14.0003 6.06949 17.3913 8C20.6822 9.87354 23.4227 11.4675 24.9995 12.618C24.9604 16.8382 22.8301 20.5585 19.5948 22.7929Z" fill="black" fill-opacity="0.11"/>
<path d="M16.2776 14.855C16.2776 15.4557 16.153 16.011 15.9036 16.521C15.6543 17.0197 15.252 17.422 14.6966 17.728C14.1526 18.0227 13.4216 18.17 12.5036 18.17C11.9823 18.17 11.4383 18.1077 10.8716 17.983C10.3163 17.8583 9.70431 17.6487 9.03565 17.354L9.66465 15.603C10.2653 15.8183 10.7696 15.9883 11.1776 16.113C11.597 16.2263 12.0163 16.283 12.4356 16.283C13.0363 16.283 13.4896 16.164 13.7956 15.926C14.113 15.6767 14.2716 15.2913 14.2716 14.77V14.532C14.2716 14.1013 14.1356 13.7557 13.8636 13.495C13.603 13.223 13.195 13.087 12.6396 13.087H10.8376V11.251H12.6396C13.1723 11.251 13.5633 11.1263 13.8126 10.877C14.062 10.6163 14.1866 10.282 14.1866 9.874V9.636C14.1866 9.11467 14.0393 8.74067 13.7446 8.514C13.4613 8.276 13.042 8.157 12.4866 8.157C12.09 8.157 11.6876 8.21367 11.2796 8.327C10.883 8.429 10.4013 8.58767 9.83465 8.803L9.20565 7.052C9.84031 6.75733 10.4296 6.55333 10.9736 6.44C11.5176 6.32667 12.0446 6.27 12.5546 6.27C13.4273 6.27 14.13 6.41733 14.6626 6.712C15.1953 7.00667 15.5806 7.40333 15.8186 7.902C16.068 8.40067 16.1926 8.95033 16.1926 9.551V9.789C16.1926 10.3217 16.0566 10.792 15.7846 11.2C15.524 11.5967 15.1783 11.914 14.7476 12.152C15.2123 12.4013 15.5806 12.7357 15.8526 13.155C16.136 13.563 16.2776 14.0503 16.2776 14.617V14.855Z" fill="white"/>
</svg>
