<svg width="25" height="25" viewBox="0 0 25 25" fill="none" xmlns="http://www.w3.org/2000/svg">
<circle cx="12.5" cy="12.5" r="12.5" fill="#FFD02B"/>
<path fill-rule="evenodd" clip-rule="evenodd" d="M20.4011 22.1867C23.208 19.8945 25 16.4065 25 12.5C25 12.045 24.9757 11.5956 24.9283 11.1531C22.765 9.94573 15.5042 6 13 6C11.2504 6 9.5 7 9.5 7L10.3261 8.5C10.3261 8.5 12.9914 7.47606 14.1304 8C15.2174 8.5 15.2174 10 14.6739 11C14.434 11.4415 13.8016 11.6448 13.0628 11.8824C12.1281 12.183 11.0229 12.5383 10.3261 13.5C9.07838 15.2218 9.78261 18 9.78261 18L20.4011 22.1867Z" fill="black" fill-opacity="0.11"/>
<path d="M16.3797 18H9.37565V16.385C9.37565 15.569 9.48332 14.889 9.69865 14.345C9.91399 13.7897 10.203 13.3363 10.5657 12.985C10.9283 12.6223 11.325 12.3333 11.7557 12.118L12.9117 11.54C13.3537 11.3133 13.7107 11.0753 13.9827 10.826C14.266 10.5653 14.4077 10.231 14.4077 9.823V9.517C14.4077 9.09767 14.2603 8.769 13.9657 8.531C13.6823 8.28167 13.2233 8.157 12.5887 8.157C12.2033 8.157 11.8123 8.21367 11.4157 8.327C11.0303 8.44033 10.56 8.599 10.0047 8.803L9.37565 7.052C10.0103 6.76867 10.5883 6.57033 11.1097 6.457C11.6423 6.33233 12.158 6.27 12.6567 6.27C13.5747 6.27 14.3057 6.41733 14.8497 6.712C15.405 7.00667 15.8017 7.40333 16.0397 7.902C16.289 8.38933 16.4137 8.92767 16.4137 9.517V9.823C16.4137 10.435 16.289 10.9563 16.0397 11.387C15.8017 11.8177 15.4843 12.1803 15.0877 12.475C14.691 12.7697 14.2603 13.0303 13.7957 13.257L12.6397 13.835C12.2203 14.039 11.9087 14.3223 11.7047 14.685C11.512 15.0477 11.4043 15.5123 11.3817 16.079H16.3797V18Z" fill="white"/>
</svg>
