<svg width="25" height="25" viewBox="0 0 25 25" fill="none" xmlns="http://www.w3.org/2000/svg">
<circle cx="12.5" cy="12.5" r="12.5" fill="#FFD02B"/>
<path fill-rule="evenodd" clip-rule="evenodd" d="M20.4541 22.1431L12.587 17V13.5H7.15218L13.6739 5.5L24 12L24.9933 12.9138C24.8725 16.6278 23.1315 19.9322 20.4541 22.1431Z" fill="black" fill-opacity="0.1"/>
<path d="M15.585 14.382H14.378V17H12.406V14.382H7.442V12.733C7.952 11.9397 8.45633 11.135 8.955 10.319C9.465 9.49167 9.941 8.67 10.383 7.854C10.825 7.02667 11.1877 6.222 11.471 5.44H13.698C13.2787 6.596 12.712 7.786 11.998 9.01C11.284 10.2227 10.5473 11.407 9.788 12.563H12.406V10.812H14.378V12.563H15.585V14.382Z" fill="white"/>
</svg>
